<?xml version="1.0" encoding="UTF-8"?>
<svg xmlns="http://www.w3.org/2000/svg" width="512" height="512" viewBox="0 0 512 512" role="img" aria-label="Cat illustration">
  <defs>
    <linearGradient id="fur" x1="0" x2="0" y1="0" y2="1">
      <stop offset="0" stop-color="#f6c38a"/>
      <stop offset="1" stop-color="#e6a76b"/>
    </linearGradient>
    <linearGradient id="belly" x1="0" x2="0" y1="0" y2="1">
      <stop offset="0" stop-color="#ffe1c3"/>
      <stop offset="1" stop-color="#f9cfa4"/>
    </linearGradient>
    <filter id="softShadow" x="-20%" y="-20%" width="140%" height="140%">
      <feGaussianBlur in="SourceAlpha" stdDeviation="6" result="blur"/>
      <feOffset dx="0" dy="6" result="off"/>
      <feColorMatrix in="off" type="matrix"
        values="0 0 0 0 0
                0 0 0 0 0
                0 0 0 0 0
                0 0 0 0.22 0" result="shadow"/>
      <feMerge>
        <feMergeNode in="shadow"/>
        <feMergeNode in="SourceGraphic"/>
      </feMerge>
    </filter>
    <style>
      .stroke { stroke:#4a2f22; stroke-width:10; stroke-linecap:round; stroke-linejoin:round; }
      .fine   { stroke:#4a2f22; stroke-width:6;  stroke-linecap:round; stroke-linejoin:round; }
    </style>
  </defs>

  <!-- background -->
  <rect width="512" height="512" fill="#fff7ee"/>
  <ellipse cx="256" cy="430" rx="170" ry="42" fill="#f0e2d3"/>

  <g filter="url(#softShadow)">
    <!-- tail -->
    <path d="M382 360
             C452 372, 470 308, 422 280
             C390 262, 360 278, 362 304
             C364 332, 402 334, 402 312"
          fill="none" class="stroke"/>

    <!-- body -->
    <ellipse cx="256" cy="350" rx="150" ry="120" fill="url(#fur)" class="stroke"/>
    <ellipse cx="256" cy="372" rx="92" ry="74" fill="url(#belly)" opacity="0.95"/>

    <!-- head -->
    <circle cx="256" cy="210" r="118" fill="url(#fur)" class="stroke"/>

    <!-- ears -->
    <path d="M178 154 L142 70 208 108 Z" fill="url(#fur)" class="stroke"/>
    <path d="M334 154 L370 70 304 108 Z" fill="url(#fur)" class="stroke"/>
    <path d="M182 144 L160 94 200 118 Z" fill="#ffb4b4" opacity="0.7"/>
    <path d="M330 144 L352 94 312 118 Z" fill="#ffb4b4" opacity="0.7"/>

    <!-- stripes -->
    <path d="M204 210 C210 188, 224 176, 242 168" fill="none" class="fine" opacity="0.55"/>
    <path d="M308 210 C302 188, 288 176, 270 168" fill="none" class="fine" opacity="0.55"/>
    <path d="M256 176 C244 156, 244 144, 256 128 C268 144, 268 156, 256 176"
          fill="none" class="fine" opacity="0.55"/>

    <!-- eyes -->
    <ellipse cx="214" cy="214" rx="28" ry="34" fill="#17314a"/>
    <ellipse cx="298" cy="214" rx="28" ry="34" fill="#17314a"/>
    <circle cx="206" cy="202" r="8" fill="#ffffff" opacity="0.9"/>
    <circle cx="290" cy="202" r="8" fill="#ffffff" opacity="0.9"/>

    <!-- nose + mouth -->
    <path d="M256 244 L238 262 L274 262 Z" fill="#ff8b8b" class="fine"/>
    <path d="M256 262 C246 272, 236 278, 222 280" fill="none" class="fine"/>
    <path d="M256 262 C266 272, 276 278, 290 280" fill="none" class="fine"/>

    <!-- whiskers -->
    <path d="M150 250 C188 248, 204 244, 218 238" fill="none" class="fine" opacity="0.9"/>
    <path d="M150 272 C190 272, 206 268, 220 262" fill="none" class="fine" opacity="0.9"/>
    <path d="M362 250 C324 248, 308 244, 294 238" fill="none" class="fine" opacity="0.9"/>
    <path d="M362 272 C322 272, 306 268, 292 262" fill="none" class="fine" opacity="0.9"/>

    <!-- paws -->
    <path d="M166 430
             C150 408, 156 378, 180 370
             C206 360, 230 380, 236 402
             C242 426, 224 446, 200 446
             C184 446, 174 440, 166 430 Z"
          fill="url(#fur)" class="stroke"/>
    <path d="M346 430
             C362 408, 356 378, 332 370
             C306 360, 282 380, 276 402
             C270 426, 288 446, 312 446
             C328 446, 338 440, 346 430 Z"
          fill="url(#fur)" class="stroke"/>

    <!-- simple toe lines -->
    <path d="M196 434 C194 420, 198 412, 206 404" fill="none" class="fine" opacity="0.45"/>
    <path d="M318 434 C320 420, 316 412, 308 404" fill="none" class="fine" opacity="0.45"/>
  </g>
</svg>
